<svg xmlns="http://www.w3.org/2000/svg" viewBox="0 0 1200 900" font-family="Helvetica, Arial, sans-serif">
  <defs>
    <linearGradient id="g" x1="0" y1="0" x2="1" y2="1"><stop offset="0" stop-color="#7c5cff"/><stop offset="1" stop-color="#00e5c0"/></linearGradient>
    <linearGradient id="bg" x1="0" y1="0" x2="1" y2="1"><stop offset="0" stop-color="#2a1d5e"/><stop offset="1" stop-color="#0b2c33"/></linearGradient>
    <linearGradient id="area" x1="0" y1="0" x2="0" y2="1"><stop offset="0" stop-color="#00e5c0" stop-opacity=".45"/><stop offset="1" stop-color="#00e5c0" stop-opacity="0"/></linearGradient>
  </defs>
  <rect width="1200" height="900" fill="url(#bg)"/>
  <g fill="#fff" fill-opacity=".5"><circle cx="120" cy="140" r="4"/><circle cx="260" cy="760" r="3"/><circle cx="1060" cy="120" r="5"/><circle cx="980" cy="800" r="3"/><circle cx="640" cy="90" r="3"/><circle cx="90" cy="520" r="3"/><circle cx="1110" cy="480" r="4"/></g>
  <rect x="80" y="110" width="170" height="52" rx="26" fill="#0a0a0f" fill-opacity=".5" stroke="#00e5c0" stroke-opacity=".6"/>
  <circle cx="112" cy="136" r="8" fill="#00e5c0"/>
  <text x="134" y="144" font-size="24" fill="#00e5c0" letter-spacing="3">LIVE</text>
  <text x="80" y="330" font-size="150" font-weight="700" fill="#f4f4f7">Now</text>
  <text x="80" y="480" font-size="150" font-weight="700" fill="url(#g)">live.</text>
  <text x="84" y="560" font-size="34" fill="#c8c8d8">Brand, site and launch — shipped.</text>
  <!-- growth chart -->
  <g transform="translate(80,620)">
    <path d="M0 220 L120 190 L240 200 L360 130 L480 140 L620 60 L760 30 L760 240 L0 240 Z" fill="url(#area)"/>
    <path d="M0 220 L120 190 L240 200 L360 130 L480 140 L620 60 L760 30" fill="none" stroke="#00e5c0" stroke-width="7" stroke-linecap="round" stroke-linejoin="round"/>
    <circle cx="760" cy="30" r="13" fill="#00e5c0" stroke="#0a0a0f" stroke-width="5"/>
  </g>
  <!-- phone -->
  <g transform="translate(850,170)">
    <rect width="260" height="520" rx="44" fill="#0a0a0f" stroke="#ffffff" stroke-opacity=".25" stroke-width="3"/>
    <rect x="16" y="16" width="228" height="488" rx="32" fill="#16161f"/>
    <rect x="16" y="16" width="228" height="190" rx="32" fill="url(#g)"/>
    <g transform="translate(75,56) scale(4.6)" fill="none" stroke="#0a0a0f" stroke-width="2.4" stroke-linecap="round" stroke-linejoin="round"><path d="M4.5 20 L12 4 L19.5 20"/><path d="M8 14.5 L16 14.5"/></g>
    <rect x="40" y="240" width="170" height="20" rx="10" fill="#f4f4f7"/>
    <rect x="40" y="276" width="130" height="14" rx="7" fill="#fff" fill-opacity=".3"/>
    <rect x="40" y="304" width="150" height="14" rx="7" fill="#fff" fill-opacity=".3"/>
    <rect x="40" y="360" width="180" height="50" rx="25" fill="url(#g)"/>
  </g>
</svg>
